<svg xmlns="http://www.w3.org/2000/svg" viewBox="0 0 64 64" fill="none">
  <rect width="64" height="64" rx="18" fill="#0F172A" />
  <rect x="6" y="6" width="52" height="52" rx="14" fill="#1E293B" />
  <path d="M20 15C24.8 15 28 19.1 28 23.1C28 26 26.5 28.2 24.4 29.8C27.1 30.1 29.6 31.6 31 34.3C32.4 31.6 34.9 30.1 37.6 29.8C35.5 28.2 34 26 34 23.1C34 19.1 37.2 15 42 15C46.4 15 49 18.5 49 22.2C49 30.7 39.4 35 31 45C22.6 35 13 30.7 13 22.2C13 18.5 15.6 15 20 15Z" fill="#D1A728" />
  <path d="M31 25L35.3 33.9L45 35.3L38 42.1L39.7 51.8L31 47.2L22.3 51.8L24 42.1L17 35.3L26.7 33.9L31 25Z" fill="#F8FAFC" />
</svg>
